<svg xmlns="http://www.w3.org/2000/svg" xml:space="preserve" viewBox="0 0 3000 770.2"><path d="m533.2 403.7 299-80.1-6-22.3-322.3 86.4 289-166.8-11.5-20-289 166.8 236-236-16.4-16.3-236 236 166.8-289-20-11.5-166.7 289 86.4-322.4-22.3-6-86.4 322.3V.1h-23.1v333.8L324.4 11.5l-22.3 6 86.4 322.3-166.8-289-20 11.5 166.9 289-236-236-16.3 16.3 254.2 254.2c11.3-16.7 30.4-27.7 52.1-27.7 28.7 0 52.9 19.2 60.4 45.5-20.8 2.7-41.2 8.6-60.4 17.4-31.3-14.5-65.8-21-100.2-18.8h-.3L0 445.3l1.8 18.4 373.7-23.1h1c7.5 18 25.2 30.6 45.9 30.6s38.4-12.6 45.9-30.6h1l373.7 23 1.8-18.4z" style="fill:#fccc00"/><path d="M1100.1 406.5c-72 0-125.4-55.9-125.4-128.6 0-72.3 53.4-127.9 125.4-127.9 49.2 0 91.9 25.3 105.5 62l-37.4 18.2c-10.7-23.9-36.7-39.5-68.1-39.5-48.5 0-82.3 37.1-82.3 87.3s33.9 88 82.3 88c33.5 0 60.6-17.1 70.2-43.8l37.8 17.1c-12.9 39.8-57 67.2-108 67.2m175.4-252.9v98.7c10.3-16.7 31.4-27.1 53.1-27.1 43.8 0 71.3 30.3 71.3 78.4V403h-39.5v-93c0-28.1-16.4-45.3-41.3-45.3-17.5 0-34.6 9.3-43.5 24.2v114H1236V153.6zM1606.9 403H1567v-24.2c-8.6 16-32.1 27.8-55.6 27.8-47.4 0-83.7-39.9-83.7-90.9 0-50.6 36.3-90.5 83.7-90.5 23.5 0 47 11.8 55.6 27.8v-24.2h39.9zm-87.3-34.2c20 0 38.8-11.4 47.4-26.7v-52c-8.2-15.7-27.4-27.1-47.4-27.1-29.9 0-53.1 22.4-53.1 52.7s23.2 53.1 53.1 53.1m123.7-140.1h39.6V253c8.6-16 32.1-27.8 55.6-27.8 47.4 0 83.7 39.9 83.7 90.9 0 50.6-36.3 90.5-83.7 90.5-23.5 0-47-11.8-55.6-27.8v85.5h-39.6zm86.9 140.1c29.9 0 53.1-22.5 53.1-52.7s-23.2-53.1-53.1-53.1c-20 0-38.8 11.4-47.4 26.7v52c8.2 15.7 27.4 27.1 47.4 27.1m131.2-31v-71.3h-33.5v-37.8h33.5V182h39.5v46.7h45.6v37.8h-45.6V336c0 20.3 14.3 32.4 31.7 32.4 4.3 0 10-1.1 13.5-2.1l2.1 34.9c-5.7 2.8-13.9 4.3-21.4 4.3-38.3 0-65.4-24.6-65.4-67.7m95.1-22.8c0-50.6 39.5-89.8 89.8-89.8 47 0 83.7 36.3 83.7 83 0 4.6-.7 11.8-1.4 17.1H1995c4.3 29.2 24.2 46.7 53.1 46.7 19.2 0 37.8-8.9 45.6-22.4l31.4 19.2c-12.8 23.5-42.4 37.8-78.4 37.8-49.9-.1-90.2-39.3-90.2-91.6m133.3-18.2c-2.8-22.1-21.7-38.1-45.2-38.1-25.3 0-42.8 14.6-48.5 38.1zm68.1-68.1h39.6v23.9c8.9-16.7 28.5-27.4 44.5-27.4 8.2 0 15 1.1 20 2.8l-2.5 37.4c-6.1-2.1-13.9-3.6-20.7-3.6-13.2 0-32.1 10.7-41.3 29.9V403h-39.6zm446.9 49.2c0 73-54.5 128.6-126.5 128.6s-126.9-55.6-126.9-128.6c0-72.7 54.9-127.9 126.9-127.9 71.9 0 126.5 55.2 126.5 127.9m-126.5 88c47.4 0 83.7-38.1 83.7-88 0-49.5-36.3-87.3-83.7-87.3-47.7 0-83.7 37.8-83.7 87.3-.1 49.9 35.9 88 83.7 88m196.3-114c10.7-16.4 31-26.7 52.7-26.7 43.8 0 71.3 30.3 71.3 78.4V403h-39.5v-93c0-28.1-16.4-45.3-41.3-45.3-17.5 0-33.8 9.3-43.1 23.9V403h-39.9V228.7h39.9zm151.9 63.1c0-50.6 39.5-89.8 89.8-89.8 47 0 83.7 36.3 83.7 83 0 4.6-.7 11.8-1.4 17.1H2865c4.3 29.2 24.2 46.7 53.1 46.7 19.2 0 37.8-8.9 45.6-22.4l31.4 19.2c-12.8 23.5-42.4 37.8-78.4 37.8-50-.1-90.2-39.3-90.2-91.6m133.2-18.2c-2.8-22.1-21.7-38.1-45.2-38.1-25.3 0-42.8 14.6-48.5 38.1zm-1985 249.3h1276.9v3.3H974.7zm15.2 85.7v106.4h-14.7V631.8zm34.5 43.3c4.7-7.6 14.1-12.6 24.5-12.6 18.4 0 30.4 13.1 30.4 33.3v42.4h-14.1v-40.4c0-13.1-7.8-21.4-19.5-21.4-8.8 0-17.2 4.7-21.3 12.2v49.7h-14V664h14zm69.3 54 5.8-10.5c5.8 5.6 16.4 9.4 24.9 9.4 8.7 0 14.4-4.4 14.4-10 0-16.6-42.9-5.5-42.9-32.8 0-13.5 11.4-22.6 28.1-22.6 10 0 20.5 3.2 26.9 9.4l-6.1 10.6c-5.5-5.3-15.5-8.2-22.2-8.2-7.8 0-12.8 3.8-12.8 9.6 0 15 43 5.5 43 33.6 0 12.8-11.6 22.2-28.4 22.2-11.4-.1-23.6-4.3-30.7-10.7m79.3-17.7v-34h-14.4V664h14.4v-20h14v20h20.1v13.4H1187v33.4c0 9.6 6.4 15.2 14.6 15.2 1.7 0 4-.3 5.5-.8l.8 12.3c-2.1.9-5.2 1.5-8.1 1.5-15.7.1-26.8-9.9-26.8-27.6m49.1-47.4h14.1v10.8c4.1-7.4 12.3-12.3 19.5-12.3 3.3 0 6.1.6 8.2 1.2l-.8 13.2c-2.4-.9-5.6-1.4-8.4-1.4-6.1 0-14.1 4.9-18.5 13.2v49.4h-14.1zm108.4 63.2c-4.7 7.6-14.1 12.5-24.3 12.5-18.4 0-30.4-13.1-30.4-33.3V664h14.1v40.4c0 13.1 7.8 21.4 19.5 21.4 8.8 0 17-4.6 21.1-12l.2-49.9h14v74.2h-14.1v-10.9zm68.1 12.5c-21.7 0-38.5-16.7-38.5-38.5 0-21.9 16.7-38.8 38.5-38.8 14.3 0 26.4 7.1 31.6 18.1l-12 6.5c-3-6.8-10.6-11.2-19.6-11.2-14.1 0-24.8 11.1-24.8 25.4 0 14.1 10.6 25.1 24.8 25.1 9.6 0 17.6-4.4 21.4-12l12.3 5.6c-5.8 12.1-18.5 19.8-33.7 19.8m53.9-28.3v-34h-14.4V664h14.4v-20h14v20h20.1v13.4h-20.1v33.4c0 9.6 6.4 15.2 14.6 15.2 1.7 0 4-.3 5.5-.8l.8 12.3c-2.1.9-5.2 1.5-8.1 1.5-15.7.1-26.8-9.9-26.8-27.6m117.5-10.1c0 21.7-17 38.5-38.5 38.5-21.4 0-38.3-16.7-38.3-38.5 0-21.9 16.9-38.8 38.3-38.8 21.5 0 38.5 16.9 38.5 38.8m-38.4 25c13.8 0 24.8-10.9 24.8-25.1 0-14.3-10.9-25.4-24.8-25.4-13.8 0-24.6 11.1-24.6 25.4 0 14.2 10.7 25.1 24.6 25.1m53.9-62.3h14.1v10.8c4.1-7.4 12.3-12.3 19.5-12.3 3.3 0 6.1.6 8.2 1.2l-.8 13.2c-2.4-.9-5.6-1.4-8.4-1.4-6.1 0-14.1 4.9-18.5 13.2v49.4h-14.1zm90.9-32.2h40.9c18.7 0 32.7 13.5 32.7 31.6s-14 31.8-32.7 31.8h-26.1v43h-14.7V631.8zm59 31.6c0-10-7.9-17.6-18.1-17.6h-26.1v35.4h26.1c10.2 0 18.1-7.8 18.1-17.8m43.6 74.8h-14.1V631.8h14.1zm88.8 0h-14v-10.6c-4.1 7-14.6 12.2-24.6 12.2-20.5 0-36.3-16.9-36.3-38.6s15.8-38.6 36.3-38.6c10.2 0 20.5 5.2 24.6 12.2V664h14zm-36-11.7c9 0 17.9-5 22-12v-26.6c-4.1-7.1-12.9-12.2-22-12.2-14.3 0-25.1 10.8-25.1 25.4 0 14.4 10.8 25.4 25.1 25.4m62.3-15.1v-34h-14.4V664h14.4v-20h14v20h20.1v13.4h-20.1v33.4c0 9.6 6.4 15.2 14.6 15.2 1.7 0 4-.3 5.5-.8l.8 12.3c-2.1.9-5.2 1.5-8.1 1.5-15.7.1-26.8-9.9-26.8-27.6m83.6-82.6c2.9 0 5.9.6 8.1 1.5l-.8 12.3c-1.5-.5-3.6-.8-5.5-.8-8.2 0-14.6 5.6-14.6 15.4v6.8h20.1v13.4h-20.1v60.8h-14v-60.8h-14.4V664h14.4v-7.4c0-17.7 11.1-27.8 26.8-27.8m87.5 72.5c0 21.7-17 38.5-38.5 38.5-21.4 0-38.3-16.7-38.3-38.5 0-21.9 16.9-38.8 38.3-38.8 21.5 0 38.5 16.9 38.5 38.8m-38.4 25c13.8 0 24.8-10.9 24.8-25.1 0-14.3-10.9-25.4-24.8-25.4-13.8 0-24.6 11.1-24.6 25.4 0 14.2 10.8 25.1 24.6 25.1m53.9-62.3h14.1v10.8c4.1-7.4 12.3-12.3 19.5-12.3 3.3 0 6.1.6 8.2 1.2l-.8 13.2c-2.4-.9-5.6-1.4-8.4-1.4-6.1 0-14.1 4.9-18.5 13.2v49.4h-14.1zm120.1 74.2h-14v-42.4c0-12.5-7.3-20.2-18.2-20.2-8.5 0-15.7 4.9-19 11.9v50.8h-14V664h14v10.6c3.5-5.2 11.1-12.2 23.4-12.2 10.9 0 18.8 4.4 23.6 13.2 5-6.7 14-13.2 25.2-13.2 18.1 0 30.2 12 30.2 30.9v44.8h-14v-42.4c0-12.5-7.1-20.2-18.5-20.2-7.8 0-15.5 5.3-19.3 11.7.3 1.4.5 2.9.6 4.4z" style="fill:#18083f"/></svg>